<?xml version="1.0" standalone="no"?>
<!DOCTYPE svg PUBLIC "-//W3C//DTD SVG 20010904//EN"
 "http://www.w3.org/TR/2001/REC-SVG-20010904/DTD/svg10.dtd">
<svg version="1.0" xmlns="http://www.w3.org/2000/svg"
 width="77.000000pt" height="77.000000pt" viewBox="0 0 77.000000 77.000000"
 preserveAspectRatio="xMidYMid meet">
<metadata>
Created by potrace 1.11, written by Peter Selinger 2001-2013
</metadata>
<g transform="translate(0.000000,77.000000) scale(0.100000,-0.100000)"
fill="#000000" stroke="none">
<path d="M328 676 c-49 -13 -62 -21 -117 -70 -102 -93 -107 -310 -10 -420 45
-51 124 -86 192 -86 45 0 127 32 127 50 0 5 5 10 10 10 6 0 10 -11 10 -25 0
-23 4 -25 45 -25 l45 0 0 140 0 140 -105 0 -105 0 0 -40 0 -40 55 0 c60 0 63
-5 40 -50 -31 -60 -135 -80 -201 -40 -90 56 -101 260 -18 331 29 25 92 42 130
34 38 -7 100 -55 109 -86 7 -20 25 -19 82 2 19 7 21 12 12 37 -37 107 -179
173 -301 138z"/>
</g>
</svg>
